<?xml version="1.0" encoding="UTF-8"?>
<svg id="Capa_2" data-name="Capa 2" xmlns="http://www.w3.org/2000/svg" viewBox="0 0 955.37 805.66">
  <defs>
    <style>
      .cls-1 {
        fill: #525fe1;
        stroke-width: 0px;
      }
    </style>
  </defs>
  <g id="Capa_1-2" data-name="Capa 1">
    <g>
      <path class="cls-1" d="M0,403.94l401.72,401.72,77.08-77.08,74.86,74.86,401.72-401.72L553.66,0l-77.08,77.08L401.72,2.22,2.96,400.98l-2.96,2.96ZM355.76,543.28l141.56-141.56-141.56-141.56,42.99-42.99,184.55,184.55,2.22,2.22-184.55,184.55s-45.21-45.21-45.21-45.21ZM370.59,620.36l-45.95,45.95-45.95-45.95,45.95-45.95,45.95,45.95ZM324.63,511.41l-109.69-109.69,109.69-109.69,109.69,109.69-109.69,109.69ZM296.47,200.86l-15.56-15.56,42.99-42.99,42.99,42.99-42.99,42.99-27.42-27.42h0ZM444.7,108.95l-45.21,45.21-42.99-42.99,45.21-45.21,42.99,42.99ZM478.8,665.57l-45.21-45.21,216.42-216.42-218.65-218.65,45.21-45.21,261.63,261.63,2.22,2.22s-261.63,261.63-261.63,261.63ZM400.98,742.66l-45.21-45.21,45.95-45.95,45.21,45.21-45.95,45.95ZM63,403.94l2.22-2.22,184.55-184.55h0l14.82,14.82,28.16,28.16-141.56,141.56,141.56,141.56-45.95,45.95S63,403.94,63,403.94Z"/>
      <polygon class="cls-1" points="324.63 574.41 292.76 543.28 247.55 588.49 278.68 620.36 324.63 574.41"/>
      <polygon class="cls-1" points="355.76 543.28 324.63 511.41 434.33 401.72 434.33 464.72 355.76 543.28"/>
      <polygon class="cls-1" points="401.72 588.49 370.59 620.36 324.63 574.41 355.76 543.28 401.72 588.49"/>
      <polygon class="cls-1" points="432.85 620.36 401.72 651.49 446.93 696.7 478.8 665.57 432.85 620.36"/>
      <polygon class="cls-1" points="355.76 260.15 324.63 229.02 367.62 185.29 399.49 217.16 355.76 260.15"/>
      <polygon class="cls-1" points="324.63 292.02 292.76 260.15 151.94 401.72 214.94 401.72 324.63 292.02"/>
      <polygon class="cls-1" points="430.62 185.29 399.49 217.16 477.32 294.99 510.67 265.34 430.62 185.29"/>
      <polygon class="cls-1" points="399.49 154.16 367.62 185.29 324.63 142.31 355.76 111.18 399.49 154.16"/>
    </g>
  </g>
</svg>