<?xml version="1.0" encoding="UTF-8"?>
<svg id="Capa_2" data-name="Capa 2" xmlns="http://www.w3.org/2000/svg" viewBox="0 0 6763.35 940.83">
  <defs>
    <style>
      .cls-1 {
        fill: #000;
        stroke-width: 0px;
      }

      .cls-2 {
        isolation: isolate;
      }
    </style>
  </defs>
  <g id="Capa_1-2" data-name="Capa 1">
    <g id="Capa_1-2" data-name="Capa 1-2">
      <g id="Tech_Properties" data-name="Tech Properties">
        <g class="cls-2">
          <path class="cls-1" d="M1687.09,218.46v59.2h-167.39v437.53h-68.29v-437.53h-167.39v-59.2h403.08Z"/>
          <path class="cls-1" d="M1889.2,363c24.15,12.03,42.5,27.7,55.13,46.83,12.2,18.26,20.25,39.55,24.32,63.88,3.64,16.7,5.37,43.28,5.37,79.8h-265.37c1.13,36.79,9.78,66.21,26.05,88.37,16.27,22.24,41.37,33.32,75.39,33.32,31.76,0,57.13-10.47,76.08-31.42,10.82-12.2,18.44-26.23,23.02-42.24h59.81c-1.56,13.33-6.84,28.13-15.75,44.49-8.91,16.36-18.87,29.69-29.95,40.07-18.52,18-41.37,30.21-68.64,36.53-14.63,3.64-31.25,5.37-49.68,5.37-45.09,0-83.26-16.36-114.6-49.16-31.33-32.8-47-78.68-47-137.79s15.75-105.34,47.34-141.69c31.59-36.27,72.79-54.44,123.77-54.44,25.71,0,50.63,6.06,74.7,18.09h0ZM1911.53,505.12c-2.51-26.4-8.22-47.43-17.22-63.18-16.7-29.25-44.49-43.97-83.52-43.97-27.96,0-51.41,10.13-70.28,30.29-18.96,20.17-29,45.79-30.12,76.95h201.15v-.09Z"/>
          <path class="cls-1" d="M2050.53,352.96h57.82v62.58c4.76-12.2,16.36-27,34.79-44.49,18.44-17.48,39.81-26.23,63.88-26.23,1.13,0,3.03.09,5.71.35,2.68.26,7.36.69,13.85,1.38v64.22c-3.64-.69-6.92-1.13-9.95-1.38-3.03-.26-6.4-.35-9.95-.35-30.64,0-54.18,9.87-70.63,29.6-16.45,19.73-24.67,42.41-24.67,68.12v208.25h-60.85v-362.14.09Z"/>
          <path class="cls-1" d="M2281.11,352.96h57.82v62.58c4.76-12.2,16.36-27,34.79-44.49,18.44-17.48,39.81-26.23,63.88-26.23,1.13,0,3.03.09,5.71.35,2.68.26,7.36.69,13.85,1.38v64.22c-3.64-.69-6.92-1.13-9.95-1.38-3.03-.26-6.4-.35-9.95-.35-30.64,0-54.18,9.87-70.63,29.6-16.45,19.73-24.67,42.41-24.67,68.12v208.25h-60.85v-362.14.09Z"/>
          <path class="cls-1" d="M2704.09,495.69c13.93-1.82,23.37-7.62,28.04-17.57,2.68-5.37,4.07-13.16,4.07-23.37,0-20.77-7.36-35.75-22.16-45.09-14.8-9.35-35.92-14.02-63.36-14.02-31.77,0-54.36,8.57-67.6,25.71-7.44,9.43-12.29,23.54-14.54,42.24h-56.78c1.13-44.66,15.58-75.65,43.45-93.13,27.87-17.48,60.15-26.23,96.85-26.23,42.58,0,77.21,8.14,103.78,24.32,26.4,16.27,39.55,41.46,39.55,75.73v208.59c0,6.32,1.3,11.43,3.89,15.23,2.6,3.81,8.05,5.71,16.36,5.71,2.68,0,5.71-.17,9.09-.52,3.38-.35,7.01-.87,10.82-1.56v45.01c-9.43,2.68-16.7,4.41-21.64,5.11-4.93.69-11.68,1.04-20.25,1.04-20.95,0-36.18-7.44-45.61-22.33-4.93-7.88-8.48-19.04-10.47-33.5-12.38,16.27-30.21,30.29-53.4,42.24-23.2,11.94-48.82,17.92-76.77,17.92-33.58,0-61.02-10.21-82.31-30.64-21.29-20.43-31.94-45.96-31.94-76.6,0-33.58,10.47-59.64,31.42-78.07,20.95-18.44,48.47-29.86,82.49-34.19l97.03-12.2v.17ZM2575.91,660.31c12.81,10.13,28.04,15.23,45.61,15.23,21.38,0,42.15-4.93,62.23-14.89,33.84-16.45,50.72-43.36,50.72-80.84v-48.99c-7.44,4.76-17.05,8.66-28.74,11.86-11.68,3.2-23.2,5.37-34.45,6.75l-36.87,4.76c-22.07,2.94-38.69,7.53-49.68,13.85-18.7,10.56-28.04,27.52-28.04,50.72,0,17.57,6.4,31.42,19.3,41.55h-.09Z"/>
          <path class="cls-1" d="M3264.61,218.46v59.2h-167.39v437.53h-68.29v-437.53h-167.39v-59.2h403.08Z"/>
          <path class="cls-1" d="M3294.39,352.96h57.82v62.58c4.76-12.2,16.36-27,34.79-44.49,18.44-17.48,39.81-26.23,63.88-26.23,1.13,0,3.03.09,5.71.35,2.68.26,7.36.69,13.85,1.38v64.22c-3.64-.69-6.92-1.13-9.95-1.38s-6.4-.35-9.95-.35c-30.64,0-54.18,9.87-70.63,29.6-16.45,19.73-24.67,42.41-24.67,68.12v208.25h-60.85v-362.14.09Z"/>
          <path class="cls-1" d="M3748.79,363c24.15,12.03,42.5,27.7,55.13,46.83,12.2,18.26,20.25,39.55,24.32,63.88,3.64,16.7,5.37,43.28,5.37,79.8h-265.37c1.13,36.79,9.78,66.21,26.05,88.37,16.27,22.24,41.37,33.32,75.39,33.32,31.77,0,57.13-10.47,76.08-31.42,10.82-12.2,18.44-26.23,23.02-42.24h59.81c-1.56,13.33-6.84,28.13-15.75,44.49-8.91,16.36-18.87,29.69-29.95,40.07-18.52,18-41.37,30.21-68.64,36.53-14.63,3.64-31.25,5.37-49.68,5.37-45.09,0-83.26-16.36-114.6-49.16-31.33-32.8-47-78.68-47-137.79s15.75-105.34,47.34-141.69c31.59-36.27,72.79-54.44,123.77-54.44,25.71,0,50.63,6.06,74.7,18.09h0ZM3771.12,505.12c-2.51-26.4-8.22-47.43-17.22-63.18-16.7-29.25-44.49-43.97-83.52-43.97-27.96,0-51.41,10.13-70.28,30.29-18.96,20.17-29,45.79-30.12,76.95h201.15v-.09Z"/>
          <path class="cls-1" d="M3907.01,218.46h58.51v288.4l156.23-153.8h77.72l-138.66,135.54,146.36,226.51h-77.72l-112.95-182.54-51.07,46.65v135.89h-58.51V218.46h.09Z"/>
          <path class="cls-1" d="M4253.22,218.46h58.51v288.4l156.23-153.8h77.72l-138.66,135.54,146.36,226.51h-77.72l-112.95-182.54-51.07,46.65v135.89h-58.51V218.46h.09Z"/>
          <path class="cls-1" d="M4826.29,363c24.15,12.03,42.5,27.7,55.13,46.83,12.2,18.26,20.25,39.55,24.32,63.88,3.64,16.7,5.37,43.28,5.37,79.8h-265.37c1.13,36.79,9.78,66.21,26.05,88.37,16.27,22.24,41.37,33.32,75.39,33.32,31.76,0,57.12-10.47,76.08-31.42,10.82-12.2,18.44-26.23,23.02-42.24h59.81c-1.56,13.33-6.84,28.13-15.75,44.49-8.92,16.36-18.87,29.69-29.95,40.07-18.52,18-41.37,30.21-68.64,36.53-14.63,3.64-31.25,5.37-49.68,5.37-45.09,0-83.26-16.36-114.6-49.16-31.33-32.8-47-78.68-47-137.79s15.75-105.34,47.34-141.69c31.59-36.27,72.79-54.44,123.77-54.44,25.71,0,50.63,6.06,74.7,18.09h0ZM4848.62,505.12c-2.51-26.4-8.22-47.43-17.22-63.18-16.7-29.25-44.49-43.97-83.52-43.97-27.96,0-51.41,10.13-70.28,30.29-18.96,20.17-29,45.79-30.12,76.95h201.15v-.09Z"/>
          <path class="cls-1" d="M4987.54,352.96h57.82v62.58c4.76-12.2,16.36-27,34.79-44.49,18.44-17.48,39.81-26.23,63.88-26.23,1.13,0,3.03.09,5.71.35,2.68.26,7.36.69,13.85,1.38v64.22c-3.64-.69-6.92-1.13-9.95-1.38-3.03-.26-6.4-.35-9.95-.35-30.64,0-54.18,9.87-70.63,29.6-16.45,19.73-24.67,42.41-24.67,68.12v208.25h-60.85v-362.14.09Z"/>
          <path class="cls-1" d="M5585.97,218.46v59.2h-167.39v437.53h-68.29v-437.53h-167.39v-59.2h403.08Z"/>
          <path class="cls-1" d="M5756.74,495.69c13.93-1.82,23.37-7.62,28.04-17.57,2.68-5.37,4.07-13.16,4.07-23.37,0-20.77-7.36-35.75-22.16-45.09-14.8-9.35-35.92-14.02-63.36-14.02-31.76,0-54.36,8.57-67.6,25.71-7.44,9.43-12.29,23.54-14.54,42.24h-56.78c1.13-44.66,15.58-75.65,43.45-93.13,27.87-17.48,60.15-26.23,96.85-26.23,42.58,0,77.21,8.14,103.78,24.32,26.4,16.27,39.55,41.46,39.55,75.73v208.59c0,6.32,1.3,11.43,3.89,15.23,2.6,3.81,8.05,5.71,16.36,5.71,2.68,0,5.71-.17,9.09-.52,3.38-.35,7.01-.87,10.82-1.56v45.01c-9.43,2.68-16.7,4.41-21.64,5.11-4.93.69-11.68,1.04-20.25,1.04-20.95,0-36.18-7.44-45.61-22.33-4.93-7.88-8.48-19.04-10.47-33.5-12.38,16.27-30.21,30.29-53.4,42.24-23.2,11.94-48.82,17.92-76.77,17.92-33.58,0-61.02-10.21-82.31-30.64-21.29-20.43-31.94-45.96-31.94-76.6,0-33.58,10.47-59.64,31.42-78.07,20.95-18.44,48.47-29.86,82.49-34.19l97.03-12.2v.17ZM5628.64,660.31c12.81,10.13,28.04,15.23,45.61,15.23,21.38,0,42.15-4.93,62.23-14.89,33.84-16.45,50.72-43.36,50.72-80.84v-48.99c-7.44,4.76-17.05,8.66-28.74,11.86-11.68,3.2-23.2,5.37-34.45,6.75l-36.87,4.76c-22.07,2.94-38.69,7.53-49.68,13.85-18.7,10.56-28.04,27.52-28.04,50.72,0,17.57,6.4,31.42,19.3,41.55h-.09Z"/>
          <path class="cls-1" d="M5949.49,218.46h60.85v496.64h-60.85V218.46Z"/>
          <path class="cls-1" d="M6327.12,363c24.15,12.03,42.5,27.7,55.13,46.83,12.2,18.26,20.25,39.55,24.32,63.88,3.64,16.7,5.37,43.28,5.37,79.8h-265.37c1.13,36.79,9.78,66.21,26.05,88.37,16.27,22.24,41.37,33.32,75.39,33.32,31.76,0,57.12-10.47,76.08-31.42,10.82-12.2,18.44-26.23,23.02-42.24h59.81c-1.56,13.33-6.84,28.13-15.75,44.49-8.92,16.36-18.87,29.69-29.95,40.07-18.52,18-41.37,30.21-68.64,36.53-14.63,3.64-31.25,5.37-49.68,5.37-45.09,0-83.26-16.36-114.6-49.16-31.33-32.8-47-78.68-47-137.79s15.75-105.34,47.34-141.69c31.59-36.27,72.79-54.44,123.77-54.44,25.71,0,50.63,6.06,74.7,18.09h0ZM6349.45,505.12c-2.51-26.4-8.22-47.43-17.22-63.18-16.7-29.25-44.49-43.97-83.52-43.97-27.96,0-51.41,10.13-70.28,30.29-18.96,20.17-29,45.79-30.12,76.95h201.15v-.09Z"/>
          <path class="cls-1" d="M6522.9,601.46c1.82,20.25,6.84,35.83,15.23,46.65,15.32,19.65,41.89,29.43,79.8,29.43,22.5,0,42.41-4.93,59.55-14.71,17.14-9.78,25.71-24.93,25.71-45.44,0-15.58-6.84-27.35-20.6-35.49-8.83-4.93-26.14-10.73-52.11-17.22l-48.38-12.2c-30.9-7.62-53.66-16.27-68.29-25.71-26.14-16.45-39.21-39.21-39.21-68.29,0-34.28,12.38-61.97,37.04-83.18,24.67-21.21,57.9-31.77,99.54-31.77,54.53,0,93.91,16.01,117.97,48.04,15.06,20.25,22.42,42.15,21.98,65.61h-57.47c-1.13-13.76-5.97-26.23-14.54-37.56-14.02-16.01-38.17-23.98-72.7-23.98-23.02,0-40.42,4.41-52.28,13.16-11.86,8.74-17.74,20.43-17.74,34.79,0,15.75,7.79,28.39,23.37,37.91,9,5.63,22.33,10.56,39.9,14.89l40.25,9.78c43.71,10.56,73.05,20.86,87.94,30.73,23.63,15.58,35.49,39.99,35.49,73.4s-12.2,60.07-36.7,83.52c-24.49,23.46-61.71,35.14-111.74,35.14-53.84,0-92.01-12.2-114.42-36.7-22.42-24.49-34.45-54.7-36.01-90.79h58.51-.09Z"/>
        </g>
        <g>
          <path class="cls-1" d="M0,471.71l469.12,469.12,90.02-90.02,87.42,87.42,469.12-469.12L646.55,0l-90.02,90.02L469.12,2.6,3.46,468.25l-3.46,3.46ZM416.32,634.43l165.32-165.32-165.32-165.32,50.2-50.2,215.52,215.52,2.6,2.6-215.52,215.52-52.8-52.8ZM432.77,724.45l-53.66,53.66-53.66-53.66,53.66-53.66,53.66,53.66ZM379.1,597.22l-128.1-128.1,128.1-128.1,128.1,128.1-128.1,128.1ZM346.21,234.56l-17.31-18.18,50.2-50.2,50.2,50.2-50.2,50.2-32.89-32.02h0ZM519.32,127.23l-52.8,52.8-50.2-50.2,52.8-52.8,50.2,50.2ZM559.13,777.25l-52.8-52.8,252.74-252.74-255.33-255.33,52.8-52.8,305.53,305.53,2.6,2.6s-305.53,305.53-305.53,305.53ZM469.12,867.26l-52.8-52.8,53.66-53.66,52.8,52.8-53.66,53.66ZM73.57,471.71l2.6-2.6,215.52-215.52h0l17.31,17.31,32.89,32.89-165.32,165.32,165.32,165.32-53.66,53.66-214.65-216.38Z"/>
          <polygon class="cls-1" points="379.1 670.79 342.75 634.43 289.09 687.23 325.44 724.45 379.1 670.79"/>
          <polygon class="cls-1" points="416.32 634.43 379.1 597.22 507.2 469.12 507.2 542.69 416.32 634.43"/>
          <polygon class="cls-1" points="469.12 687.23 432.77 724.45 379.1 670.79 416.32 634.43 469.12 687.23"/>
          <polygon class="cls-1" points="506.34 724.45 469.12 760.8 521.92 813.6 559.13 777.25 506.34 724.45"/>
          <polygon class="cls-1" points="416.32 303.8 379.1 267.45 430.17 216.38 466.52 253.6 416.32 303.8"/>
          <polygon class="cls-1" points="379.1 341.02 342.75 303.8 177.43 469.12 251 469.12 379.1 341.02"/>
          <polygon class="cls-1" points="502.87 216.38 466.52 253.6 557.4 344.48 596.35 309.86 502.87 216.38"/>
          <polygon class="cls-1" points="466.52 180.03 430.17 216.38 379.1 166.18 416.32 129.83 466.52 180.03"/>
        </g>
      </g>
    </g>
  </g>
</svg>